MoBL_ARMS_module2_4_allmuscles_shoulder_states	
version=1	
nRows=336	
nColumns=2	
inDegrees=yes	
	
# SIMM Motion File Header:	
name MoBL_ARMS_module2_4_allmuscles_shoulder_states	
datacolumns 2	
datarows 336	
otherdata 1	
range 1.62727038 2.286767202	
endheader	
time	shoulder_elv
1.62727038	42.29245695
1.628953401	42.27926519
1.630636422	42.26564499
1.632319444	42.25159076
1.634002465	42.23711041
1.635685486	42.22219665
1.637177946	42.20861697
1.638670407	42.19469844
1.640491078	42.17726656
1.64231175	42.15933362
1.643857655	42.14371893
1.645403559	42.12774326
1.646949464	42.11141125
1.649011498	42.08906804
1.650543912	42.0720541
1.652076326	42.05468748
1.653984104	42.03257967
1.655694588	42.01229497
1.657405072	41.99157821
1.659115556	41.9704232
1.66082604	41.94883826
1.662338288	41.92938981
1.663850537	41.90960557
1.665727293	41.88457981
1.667604049	41.8590352
1.669099358	41.83830573
1.670594667	41.81724752
1.672552531	41.78917206
1.674305451	41.76355459
1.676058372	41.73747728
1.677811292	41.71094664
1.679326989	41.68763354
1.680842685	41.66398066
1.682759836	41.63356947
1.684676987	41.60261055
1.686165217	41.57819401
1.687653446	41.5534463
1.689671508	41.51935098
1.691457323	41.48866503
1.693243139	41.45748854
1.694840018	41.42919903
1.696436897	41.40051358
1.698033776	41.37143521
1.70010632	41.33310186
1.701706983	41.3030391
1.703307647	41.27257145
1.70524363	41.23518239
1.707179614	41.1971938
1.708605586	41.16883255
1.710031558	41.14014171
1.712177172	41.09635287
1.714065442	41.0571947
1.715953711	41.01745564
1.717518114	40.98408432
1.719082516	40.95031077
1.721055025	40.90714438
1.723027534	40.86332988
1.7245329	40.82944803
1.726038266	40.79518615
1.72814577	40.74657263
1.730005708	40.70304368
1.731865646	40.65892052
1.733458876	40.6206566
1.735052106	40.58195404
1.737004707	40.53392784
1.738957309	40.48524109
1.740542122	40.44524343
1.742126936	40.40480863
1.74414067	40.35280485
1.746154404	40.30009562
1.747675495	40.25981853
1.749196587	40.21913821
1.751340581	40.16111999
1.753226008	40.10943946
1.755111436	40.05714719
1.756996863	40.00423707
1.758547456	39.96026817
1.760098048	39.9158832
1.762185238	39.85548878
1.764272428	39.79434637
1.765826252	39.7483488
1.767380076	39.70193809
1.76955835	39.63618787
1.771736624	39.56963242
1.773171588	39.52535482
1.774606551	39.48072917
1.77707249	39.40323761
1.7791023	39.33868934
1.781132109	39.27346042
1.782724456	39.22180909
1.784316803	39.16974297
1.786473865	39.09854665
1.788630927	39.02659305
1.790166945	38.97489058
1.791702962	38.92280857
1.794014862	38.84369924
1.795874311	38.77945038
1.79773376	38.71464641
1.799593208	38.64929403
1.801452657	38.58339123
1.803312106	38.51694497
1.805171555	38.44995312
1.807031004	38.38242277
1.808890452	38.31435183
1.810749901	38.24574735
1.81260935	38.17660739
1.814468799	38.10693883
1.816328247	38.03674004
1.818187696	37.96601753
1.820047145	37.89477008
1.822301277	37.80770473
1.823973162	37.7426339
1.825645047	37.67714934
1.8278558	37.58992019
1.829833871	37.51126345
1.831811941	37.4320296
1.833790012	37.35223
1.835457589	37.2845113
1.837125165	37.2163947
1.839319735	37.12614197
1.841514305	37.03520565
1.843178248	36.96579852
1.844842191	36.89600446
1.847108387	36.80032403
1.849374582	36.70393307
1.850981374	36.63515598
1.852588165	36.56602763
1.85498782	36.46213142
1.856945247	36.37680624
1.858902675	36.29096381
1.860860102	36.20461241
1.862817529	36.11775054
1.864774956	36.03038706
1.866732384	35.94251956
1.868689811	35.85415739
1.870647238	35.76529751
1.872604665	35.67594977
1.874562093	35.58611074
1.87651952	35.49579061
1.878476947	35.40498583
1.880434374	35.31370675
1.882391802	35.22194997
1.884349229	35.12972574
1.886306656	35.03703093
1.888264084	34.94387542
1.890221511	34.85025648
1.892178938	34.75618333
1.894136365	34.66165387
1.896093793	34.56667677
1.89805122	34.47125066
1.900008647	34.37538337
1.901966074	34.2790744
1.904360859	34.16065641
1.90614894	34.07181354
1.90793702	33.98261569
1.91023983	33.86721553
1.912542641	33.7512352
1.914254159	33.66465626
1.915965678	33.57776354
1.91838561	33.45436717
1.920456071	33.34829881
1.922526532	33.24177658
1.924596993	33.13481073
1.926667454	33.02739847
1.928737915	32.91955218
1.930808376	32.81126679
1.93266949	32.71356785
1.934530605	32.61552137
1.936391719	32.51713565
1.938966227	32.38047833
1.940888891	32.2780067
1.942811555	32.17517908
1.944734218	32.07200325
1.947297704	31.93389764
1.949173583	31.83245253
1.951049463	31.73068102
1.953432005	31.60096129
1.955551908	31.485107
1.957671811	31.36885402
1.959791714	31.25219767
1.961911617	31.13515058
1.96403152	31.01770515
1.965907323	30.91346291
1.967783125	30.8089139
1.970090384	30.67990666
1.972397644	30.55044427
1.974350122	30.44054233
1.9763026	30.33031857
1.978255078	30.21978055
1.980868203	30.07134708
1.98284326	29.95879046
1.984818317	29.84591489
1.987203663	29.70917602
1.989589009	29.57198041
1.991397044	29.46769517
1.993205078	29.36315177
1.99577368	29.21419892
1.998090098	29.07943616
2.000406515	28.94427319
2.002391142	28.82814855
2.004375769	28.71173857
2.006360396	28.59504142
2.009092692	28.4339239
2.011194067	28.30965203
2.013295442	28.18508195
2.015396817	28.06021549
2.017920719	27.90986883
2.020033926	27.7836776
2.022147133	27.65722023
2.02426034	27.53049905
2.026811182	27.3772037
2.028968576	27.24727765
2.031125969	27.11711925
2.033283362	26.98673386
2.035440756	26.85613787
2.038139993	26.69245413
2.040222078	26.56599314
2.042304164	26.43935956
2.044869737	26.28310286
2.046101775	26.20798221
2.048331602	26.07189729
2.051563435	25.87438765
2.052675166	25.80637406
2.054485976	25.69551988
2.057912883	25.48549918
2.059009512	25.41823156
2.06128659	25.27846848
2.064050199	25.10869752
2.065130793	25.04227532
2.06742286	24.90131706
2.07011652	24.73554991
2.071256113	24.6653858
2.073540189	24.52470087
2.076416768	24.34742409
2.077482776	24.28170321
2.07967199	24.14669666
2.082471714	23.97397255
2.083539144	23.90810116
2.085748592	23.77172792
2.088518686	23.60070382
2.089590881	23.53449481
2.091823868	23.39658822
2.094567795	23.22709987
2.095651344	23.16016394
2.097894814	23.02156667
2.100648092	22.85146606
2.101725944	22.78487372
2.103956353	22.64707509
2.106711308	22.47687672
2.107787468	22.41039576
2.110006868	22.27329981
2.11277168	22.10253619
2.113845005	22.03625205
2.116049779	21.90011252
2.118828391	21.72857936
2.119900092	21.66243227
2.122086774	21.5274929
2.124887954	21.35468934
2.125957786	21.28870947
2.128118836	21.15546489
2.130954867	20.98067752
2.132021321	20.91497384
2.134146836	20.78406399
2.137029694	20.6066045
2.138090662	20.54132335
2.140167296	20.41359766
2.143402031	20.2147789
2.144512916	20.14653938
2.146710255	20.01162762
2.149532256	19.83849826
2.150584112	19.77400625
2.1525999	19.65047879
2.155782505	19.45563075
2.15685271	19.39016015
2.15884921	19.26809732
2.162043733	19.07299737
2.163123308	19.00712196
2.164992683	18.89312918
2.168178792	18.69906983
2.169269063	18.63272972
2.171081305	18.52253969
2.174526003	18.31337361
2.175696998	18.24235499
2.177354568	18.1419054
2.181657135	17.88161057
2.183258889	17.78487518
2.185403273	17.65551961
2.187930695	17.50328252
2.18927534	17.42239171
2.191401784	17.29461748
2.19417067	17.12852013
2.196185586	17.00785581
2.197992159	16.89981873
2.199798732	16.79192639
2.201605305	16.68418199
2.203778919	16.55474641
2.205528548	16.45072024
2.207278177	16.34684044
2.209382085	16.22212396
2.211235237	16.11245335
2.213088389	16.00295591
2.215624678	15.85337816
2.216852327	15.78109773
2.218966466	15.65680875
2.222952528	15.42312119
2.224348031	15.34151438
2.225743533	15.26001492
2.227626678	15.1502087
2.231357628	14.93325177
2.232627776	14.85957501
2.233897924	14.78599162
2.236632476	14.62789145
2.238388301	14.52661063
2.241571476	14.34346883
2.242661268	14.28091088
2.244449216	14.1784335
2.24820765	13.96366329
2.249570064	13.88602921
2.250932479	13.80851217
2.252885452	13.69760001
2.256545922	13.49037892
2.257762527	13.42169922
2.259352423	13.33209172
2.262511316	13.15454696
2.264137472	13.06340701
2.26613559	12.9516625
2.26854878	12.81706365
2.27096197	12.68286185
2.27311457	12.56349329
2.274839177	12.46809341
2.276563785	12.37290426
2.278288392	12.27792759
2.280630582	12.14928275
2.281911116	12.07911787
2.283879927	11.97147423
2.286767202	11.81413278
